<svg width="1600" height="900" viewBox="0 0 1600 900" fill="none" xmlns="http://www.w3.org/2000/svg">
  <rect width="1600" height="900" rx="64" fill="#F8FAFC"/>
  <rect x="48" y="48" width="1504" height="804" rx="48" fill="url(#panel)"/>
  <rect x="120" y="128" width="160" height="160" rx="36" fill="#0F172A"/>
  <rect x="142" y="150" width="116" height="116" rx="28" fill="url(#iconBg)"/>
  <path d="M184 208H126" stroke="#F59E0B" stroke-width="16" stroke-linecap="round"/>
  <path d="M176 188L198 208L176 228" stroke="#0F172A" stroke-width="12" stroke-linecap="round" stroke-linejoin="round"/>
  <circle cx="128" cy="252" r="16" fill="#BFDBFE"/>
  <circle cx="244" cy="252" r="16" fill="#DBEAFE"/>
  <text x="332" y="198" fill="#E2E8F0" font-family="Helvetica, Arial, sans-serif" font-size="72" font-weight="800">Startup Workflow</text>
  <text x="332" y="268" fill="#BFDBFE" font-family="Helvetica, Arial, sans-serif" font-size="34" font-weight="500">Gated 0-1 product initiation for AI agents</text>
  <rect x="120" y="372" width="340" height="352" rx="36" fill="#FFFFFF" fill-opacity="0.12"/>
  <text x="156" y="432" fill="#E2E8F0" font-family="Helvetica, Arial, sans-serif" font-size="28" font-weight="700">Stages</text>
  <text x="156" y="490" fill="#F8FAFC" font-family="Helvetica, Arial, sans-serif" font-size="24">1. Opportunity framing</text>
  <text x="156" y="536" fill="#F8FAFC" font-family="Helvetica, Arial, sans-serif" font-size="24">2. User research plan</text>
  <text x="156" y="582" fill="#F8FAFC" font-family="Helvetica, Arial, sans-serif" font-size="24">3. Evidence review</text>
  <text x="156" y="628" fill="#F8FAFC" font-family="Helvetica, Arial, sans-serif" font-size="24">4. AI fit review</text>
  <text x="156" y="674" fill="#F8FAFC" font-family="Helvetica, Arial, sans-serif" font-size="24">5. Market and risk review</text>
  <rect x="518" y="372" width="954" height="352" rx="36" fill="#0F172A" fill-opacity="0.24"/>
  <text x="566" y="432" fill="#E2E8F0" font-family="Helvetica, Arial, sans-serif" font-size="28" font-weight="700">Workflow promise</text>
  <text x="566" y="500" fill="#F8FAFC" font-family="Helvetica, Arial, sans-serif" font-size="44" font-weight="700">Move from rough idea to</text>
  <text x="566" y="558" fill="#F8FAFC" font-family="Helvetica, Arial, sans-serif" font-size="44" font-weight="700">reviewable MVP scope</text>
  <text x="566" y="632" fill="#BFDBFE" font-family="Helvetica, Arial, sans-serif" font-size="28">Every stage ends with go, revise, or stop.</text>
  <defs>
    <linearGradient id="panel" x1="98" y1="96" x2="1496" y2="804" gradientUnits="userSpaceOnUse">
      <stop stop-color="#0F172A"/>
      <stop offset="1" stop-color="#1D4ED8"/>
    </linearGradient>
    <linearGradient id="iconBg" x1="142" y1="150" x2="258" y2="266" gradientUnits="userSpaceOnUse">
      <stop stop-color="#60A5FA"/>
      <stop offset="1" stop-color="#38BDF8"/>
    </linearGradient>
  </defs>
</svg>
